<?xml version="1.0" encoding="UTF-8"?>
<svg id="Camada_1" xmlns="http://www.w3.org/2000/svg" version="1.1" viewBox="0 0 1920 1080">
  <!-- Generator: Adobe Illustrator 30.3.0, SVG Export Plug-In . SVG Version: 2.1.3 Build 182)  -->
  <path d="M990.37,482.28l-140.28-.02c21.02-38.91,58.95-62.97,102.16-65.97l38.12,65.99Z"/>
  <path d="M1069.61,598.53c-20.81,38.98-58.92,63-102.09,66.03l-38.14-66.03h140.22Z"/>
  <path d="M1063.57,471.63l-38.02,65.99-70.11-121.34c43.42-1.58,82.95,18.93,108.13,55.35Z"/>
  <path d="M964.28,664.47c-43.54,1.91-83.64-19.53-108.08-55.39l38.07-65.83,70.01,121.22Z"/>
  <path d="M924.52,485.19l-69.89,121.05c-23.33-36.66-25.12-82.73-5.96-121.37l75.85.31Z"/>
  <path d="M1071.23,595.92l-76.08-.11,69.98-121.22c23.13,36.57,25.22,81.82,6.11,121.33Z"/>
</svg>